<svg version="1.0" xmlns="http://www.w3.org/2000/svg" width="12" height="6" 
viewBox="0 0 440 460">
    <path fill='#245AA4' d="M268.3 67.1C191 74.5 129.9 135.3 122 212.5c-5.2 49.9 12.6 97.9 49.3 133.1 
        24.4 23.5 54.3 38.1 89.2 43.5 11.5 1.8 39 1.6 50-.4 24.8-4.6 47.6-13.8 
        65-26.2 9.9-7.1 26-21 32.2-27.9 5.7-6.3 13.3-16.5 13.3-17.8 0-.5-3.7 2.5-8.2 
        6.7-20 18.6-44.3 30.5-71.7 35-14.6 2.5-36.6 
        1.6-50.7-1.9-17.3-4.3-31.2-10.4-45.4-19.9-9.8-6.5-28.3-25.1-35-35.1-35.6-53.3-29.1-121.6 
        16-167.7 10.9-11.1 22.8-19.8 35.4-25.9 49-23.7 104.8-16.9 146.3 17.9 8.3 7 
        7.7 5.3-2.5-6.1C371.8 82 320 62.1 268.3 67.1zM505.1 94.6c-27.5 7.4-46.6 
        34.7-44" />

    <!-- Arco Verde -->
    <g transform="translate(-150, -75) scale(1.35)">
        <path fill='#69B025' d="M268.3 67.1
        C191 74.5 129.9 135.3 
        122 212.5
        c-5.2 49.9 12.6 97.9 49.3 133.1 24.4 23.5 54.3 38.1 89.2 43.5 
        11.5 1.8 39 1.6 50-.4 24.8-4.6 47.6-13.8 65-26.2 9.9-7.1 26-21 32.2-27.9 5.7-6.3 13.3-16.5 13.3-17.8 0-.5-3.7 2.5-8.2 6.7-20 18.6-44.3 30.5-71.7 35-14.6 2.5-36.6 1.6-50.7-1.9-17.3-4.3-31.2-10.4-45.4-19.9-9.8-6.5-28.3-25.1-35-35.1-35.6-53.3-29.1-121.6 16-167.7 10.9-11.1 22.8-19.8 35.4-25.9 49-23.7 104.8-16.9 146.3 17.9 8.3 7 7.7 5.3-2.5-6.1C371.8 82 320 62.1 268.3 67.1z     
" />
    </g>
    <path fill='#245AA4' d="M272.1 156.9c-.9 1.5-47.8 107.4-53.2 119.9l-1.9 4.3 11.7-.3 11.7-.3 
        4.6-10.3 4.5-10.2h25.9c20.2 0 25.7-.3 
        25.3-1.3-.3-.6-2.4-5.6-4.8-11l-4.2-9.7h-32.5l12.2-27.6c6.7-15.1 12.6-27.6 
        13.1-27.7.5-.1 10.6 21.8 22.5 48.8l21.7 49 11.7.3c6.5.1 11.6-.1 
        11.4-.5-.3-.4-12.8-28.8-27.9-63L296.5 155h-11.7c-10.4 0-11.8.2-12.7 1.9zM324 
        165.4v10.5l29.8.3c28.2.3 30 .5 35.5 2.6 20.1 8.1 31.1 30.8 
        24.8 51.1-3.9 12.5-11.2 20.9-22.9 26.4-6.1 2.9-7.8 3.2-18.2 3.5l-11.5.4-4.2 
        10.4-4.1 10.4h15.7c17.5 0 23.3-1.1 33.4-6.1 25.6-12.9 39.2-41.7 
        33.2-70.4-3.8-18.4-17.1-35.4-33.5-43.3-4.7-2.2-10.9-4.5-13.8-5.1-3.1-.7-17.4-1.1-34.7-1.1H324v10.4zM891 
        " />
    <!-- <style>
        /* path { fill: #000; } */
        @media (prefers-color-scheme: dark) {
            path { fill: #FFF; }
        }
    </style> -->
</svg>