<svg version="1.0" xmlns="http://www.w3.org/2000/svg" width="1272" height="609.333" viewBox="0 0 954 457">
    <path fill='#245AA4'
        d="M268.3 67.1C191 74.5 129.9 135.3 122 212.5c-5.2 49.9 12.6 97.9 49.3 133.1 24.4 23.5 54.3 38.1 89.2 43.5 11.5 1.8 39 1.6 50-.4 24.8-4.6 47.6-13.8 65-26.2 9.9-7.1 26-21 32.2-27.9 5.7-6.3 13.3-16.5 13.3-17.8 0-.5-3.7 2.5-8.2 6.7-20 18.6-44.3 30.5-71.7 35-14.6 2.5-36.6 1.6-50.7-1.9-17.3-4.3-31.2-10.4-45.4-19.9-9.8-6.5-28.3-25.1-35-35.1-35.6-53.3-29.1-121.6 16-167.7 10.9-11.1 22.8-19.8 35.4-25.9 49-23.7 104.8-16.9 146.3 17.9 8.3 7 7.7 5.3-2.5-6.1C371.8 82 320 62.1 268.3 67.1zM505.1 94.6c-27.5 7.4-46.6 34.7-44.7 64.2 2.8 44.7 49.4 71.8 88.3 51.2 4.3-2.2 9.6-5.6 11.8-7.5l4-3.4-7.2-7.2-7.1-7.2-3.3 2.7c-18.3 15.5-46.6 11-59.9-9.5-14-21.7-5.9-49.9 17.8-61.6 5.1-2.5 6.7-2.8 16.2-2.8 9.2 0 11.2.3 16 2.6 3.1 1.4 7.3 4.1 9.4 5.9l3.7 3.3 7.2-7.2 7.2-7.2-4.2-3.8c-5.4-4.9-16.3-10.6-23.9-12.6-7.3-1.9-24-1.9-31.3.1zM622.2 94.5c-19.3 4.2-36 19.2-42.9 38.6-3.5 9.6-4.4 27.1-1.9 37 5.4 21.5 21.4 38.4 42.2 44.5 7.1 2.1 21.6 2.3 29.4.5 27.1-6.5 45.9-31.1 46-60.4 0-14.7-5.8-31.9-11.1-32.5-3.4-.4-13.6 6.4-14.5 9.6-.4 1.4.2 4.6 1.5 8 5.8 15 2.6 30.9-8.6 43.3-4.3 4.7-13.8 9.5-21.5 11-15.7 2.8-33.3-7.1-40.5-22.8-3.5-7.5-4.3-19.4-1.9-27.5 4.3-14.8 16.8-25.9 32.1-28.6l4-.8.3-9.8c.4-12.7.2-12.8-12.6-10.1zM711 154.9V215h19l.2-49.8.3-49.7 12.8-.3c16.4-.3 19.8.6 26.3 7.2 4.2 4.2 5.4 6.1 6.4 10.7 1.7 7.4-.4 14.9-5.5 20.2-5.1 5.2-8.9 6.9-17.4 7.6l-7.5.6-3.8 9.4c-2.1 5.2-3.8 9.6-3.8 9.8 0 .2 3 .3 6.8.3h6.7l10.5 17 10.5 16.9 11.8.1c6.4 0 11.7-.2 11.7-.5s-4.9-8.3-11-17.9c-6-9.5-11.2-18-11.5-18.8-.4-1.1.1-1.8 1.5-2.3 4.3-1.4 13.6-11.3 17.1-18.2 3.3-6.7 3.4-7.1 3.4-19.3v-12.5l-3.9-7.2c-4.7-8.9-11.5-15.4-20.4-19.6l-6.7-3.2-26.7-.3-26.8-.3v60zM808 154.9V215h20V115h12.8c16 0 20.3 1.3 26.6 8 8.8 9.4 8.6 21.8-.5 30.9-4.7 4.7-8.5 6.3-16.8 7l-7.5.6-3.8 9.4c-2.1 5.2-3.8 9.7-3.8 9.9 0 .2 6 .3 13.3 0 12.3-.3 13.6-.6 20-3.5 33.7-15.9 33.7-62.6 0-78.6l-6.8-3.2-26.7-.3-26.8-.3v60z" />
    <g transform="translate(-150, -75) scale(1.35)">
        <path fill='#69B025' d="M268.3 67.1
        C191 74.5 129.9 135.3 
        122 212.5
        c-5.2 49.9 12.6 97.9 49.3 133.1 24.4 23.5 54.3 38.1 89.2 43.5 
        11.5 1.8 39 1.6 50-.4 24.8-4.6 47.6-13.8 65-26.2 9.9-7.1 26-21 32.2-27.9 5.7-6.3 13.3-16.5 13.3-17.8 0-.5-3.7 2.5-8.2 6.7-20 18.6-44.3 30.5-71.7 35-14.6 2.5-36.6 1.6-50.7-1.9-17.3-4.3-31.2-10.4-45.4-19.9-9.8-6.5-28.3-25.1-35-35.1-35.6-53.3-29.1-121.6 16-167.7 10.9-11.1 22.8-19.8 35.4-25.9 49-23.7 104.8-16.9 146.3 17.9 8.3 7 7.7 5.3-2.5-6.1C371.8 82 320 62.1 268.3 67.1z     
" />
    </g>
    <path fill='#245AA4'
        d="M272.1 156.9c-.9 1.5-47.8 107.4-53.2 119.9l-1.9 4.3 11.7-.3 11.7-.3 4.6-10.3 4.5-10.2h25.9c20.2 0 25.7-.3 25.3-1.3-.3-.6-2.4-5.6-4.8-11l-4.2-9.7h-32.5l12.2-27.6c6.7-15.1 12.6-27.6 13.1-27.7.5-.1 10.6 21.8 22.5 48.8l21.7 49 11.7.3c6.5.1 11.6-.1 11.4-.5-.3-.4-12.8-28.8-27.9-63L296.5 155h-11.7c-10.4 0-11.8.2-12.7 1.9zM324 165.4v10.5l29.8.3c28.2.3 30 .5 35.5 2.6 20.1 8.1 31.1 30.8 24.8 51.1-3.9 12.5-11.2 20.9-22.9 26.4-6.1 2.9-7.8 3.2-18.2 3.5l-11.5.4-4.2 10.4-4.1 10.4h15.7c17.5 0 23.3-1.1 33.4-6.1 25.6-12.9 39.2-41.7 33.2-70.4-3.8-18.4-17.1-35.4-33.5-43.3-4.7-2.2-10.9-4.5-13.8-5.1-3.1-.7-17.4-1.1-34.7-1.1H324v10.4zM891 205v10h19v-20h-19v10zM714 288v60h20l.2-40.5.3-40.6 23.2 40.3 23.1 40.3 11.1.3 11.1.3V228h-20l-.2 41-.3 41-23.5-41-23.5-41H714v60zM605.1 286.7c-14 31.8-25.8 58.6-26.3 59.6-.8 1.6-.2 1.7 10.2 1.5l11.1-.3 4.2-9.5 4.3-9.5 24.2-.3c13.3-.1 24.2-.6 24.2-1s-1.9-5.1-4.2-10.4l-4.2-9.8-15.2-.2-15.2-.3 11.7-26.2c6.4-14.5 11.8-26.3 12.1-26.3.3 0 9.7 21 21 46.6 11.3 25.7 21 46.8 21.6 47.1.6.2 5.5.2 11 .1l10-.3-26-59-26.1-59-11.5-.3-11.5-.2-25.4 57.7zM815 288.5V348h20v-99.2l19.3.4c17.5.3 19.6.5 24.1 2.6 10.3 4.7 17.9 13.2 21.7 24 3.1 8.7 2.3 20.5-1.8 29.4-4 8.4-10.7 15.1-19.2 19.1-5.4 2.6-8 3.1-17.4 3.6l-11.1.6-3.8 9.4c-2.1 5.2-3.8 9.6-3.8 9.8 0 .2 6.4.3 14.3.3 21.7 0 32.9-3.8 45.5-15.6 12-11.1 18.1-24.2 18.9-40.9.6-12.5-1.1-20.7-6.9-31.7-5.2-10.1-14-19.1-23.4-24-12.5-6.5-14.5-6.8-47.1-6.8H815v59.5zM933 288.5V348h20V229h-20v59.5z" />
</svg>