<svg version="1.0" xmlns="http://www.w3.org/2000/svg" width="960" height="609.333" viewBox="-140 -60 960 480">
    <path fill="#245AA4"
        d="M131.715-4.545C50.55 3.225-13.605 67.065-21.9 148.125-27.36 200.52-8.67 250.92 29.865 287.88c25.62 24.675 57.015 40.005 93.66 45.675 12.075 1.89 40.95 1.68 52.5-.42 26.04-4.83 49.98-14.49 68.25-27.51 10.395-7.455 27.3-22.05 33.81-29.295 5.985-6.615 13.965-17.325 13.965-18.69 0-.525-3.885 2.625-8.61 7.035-21 19.53-46.515 32.025-75.285 36.75-15.33 2.625-38.43 1.68-53.235-1.995-18.165-4.515-32.76-10.92-47.67-20.895-10.29-6.825-29.715-26.355-36.75-36.855C33.12 185.715 39.945 114 87.3 65.595c11.445-11.655 23.94-20.79 37.17-27.195 51.45-24.885 110.04-17.745 153.615 18.795 8.715 7.35 8.085 5.565-2.625-6.405C240.39 11.1 186-9.795 131.715-4.545zm248.64 28.875c-28.875 7.77-48.93 36.435-46.935 67.41 2.94 46.935 51.87 75.39 92.715 53.76 4.515-2.31 10.08-5.88 12.39-7.875l4.2-3.57-7.56-7.56-7.455-7.56-3.465 2.835c-19.215 16.275-48.93 11.55-62.895-9.975-14.7-22.785-6.195-52.395 18.69-64.68 5.355-2.625 7.035-2.94 17.01-2.94 9.66 0 11.76.315 16.8 2.73 3.255 1.47 7.665 4.305 9.87 6.195l3.885 3.465 7.56-7.56 7.56-7.56-4.41-3.99c-5.67-5.145-17.115-11.13-25.095-13.23-7.665-1.995-25.2-1.995-32.865.105zm122.955-.105c-20.265 4.41-37.8 20.16-45.045 40.53-3.675 10.08-4.62 28.455-1.995 38.85 5.67 22.575 22.47 40.32 44.31 46.725 7.455 2.205 22.68 2.415 30.87.525 28.455-6.825 48.195-32.655 48.3-63.42 0-15.435-6.09-33.495-11.655-34.125-3.57-.42-14.28 6.72-15.225 10.08-.42 1.47.21 4.83 1.575 8.4 6.09 15.75 2.73 32.445-9.03 45.465-4.515 4.935-14.49 9.975-22.575 11.55-16.485 2.94-34.965-7.455-42.525-23.94-3.675-7.875-4.515-20.37-1.995-28.875 4.515-15.54 17.64-27.195 33.705-30.03l4.2-.84.315-10.29c.42-13.335.21-13.44-13.23-10.605zm93.24 63.42v63.105h19.95l.21-52.29.315-52.185 13.44-.315c17.22-.315 20.79.63 27.615 7.56 4.41 4.41 5.67 6.405 6.72 11.235 1.785 7.77-.42 15.645-5.775 21.21-5.355 5.46-9.345 7.245-18.27 7.98l-7.875.63-3.99 9.87c-2.205 5.46-3.99 10.08-3.99 10.29 0 .21 3.15.315 7.14.315h7.035L650.1 132.9l11.025 17.745 12.39.105c6.72 0 12.285-.21 12.285-.525s-5.145-8.715-11.55-18.795c-6.3-9.975-11.76-18.9-12.075-19.74-.42-1.155.105-1.89 1.575-2.415 4.515-1.47 14.28-11.865 17.955-19.11 3.465-7.035 3.57-7.455 3.57-20.265V56.775l-4.095-7.56c-4.935-9.345-12.075-16.17-21.42-20.58l-7.035-3.36-28.035-.315-28.14-.315v63zm101.85 0v63.105h21v-105h13.44c16.8 0 21.315 1.365 27.93 8.4 9.24 9.87 9.03 22.89-.525 32.445-4.935 4.935-8.925 6.615-17.64 7.35l-7.875.63-3.99 9.87c-2.205 5.46-3.99 10.185-3.99 10.395 0 .21 6.3.315 13.965 0 12.915-.315 14.28-.63 21-3.675 35.385-16.695 35.385-65.73 0-82.53l-7.14-3.36-28.035-.315-28.14-.315v63z" />
    <path fill="#69B025"
        d="M72.815-58.636c-109.572 10.49-196.182 96.674-207.38 206.105-7.371 70.733 17.86 138.773 69.883 188.669 34.587 33.311 76.97 54.007 126.44 61.661 16.302 2.552 55.283 2.268 70.876-.567 35.154-6.52 67.473-19.561 92.137-37.138 14.034-10.064 36.855-29.768 45.644-39.548 8.08-8.93 18.853-23.39 18.853-25.232 0-.709-5.245 3.544-11.624 9.497-28.35 26.366-62.795 43.234-101.635 49.613-20.695 3.544-51.88 2.268-71.867-2.693-24.523-6.096-44.226-14.742-64.354-28.209-13.892-9.213-40.116-35.579-49.613-49.754-50.463-75.553-41.25-172.368 22.68-237.715C28.305 20.32 45.174 7.987 63.035-.66c69.457-33.595 148.554-23.956 207.38 25.373 11.765 9.923 10.915 7.513-3.544-8.646C219.527-37.515 146.1-65.723 72.815-58.636z" />
    <path fill="#245AA4"
        d="M135.705 89.745c-.945 1.575-50.19 112.77-55.86 125.895l-1.995 4.515 12.285-.315 12.285-.315 4.83-10.815 4.725-10.71h27.195c21.21 0 26.985-.315 26.565-1.365-.315-.63-2.52-5.88-5.04-11.55l-4.41-10.185H122.16l12.81-28.98c7.035-15.855 13.23-28.98 13.755-29.085.525-.105 11.13 22.89 23.625 51.24l22.785 51.45 12.285.315c6.825.105 12.18-.105 11.97-.525-.315-.42-13.44-30.24-29.295-66.15l-28.77-65.415H149.04c-10.92 0-12.39.21-13.335 1.995zM190.2 98.67v11.025l31.29.315c29.61.315 31.5.525 37.275 2.73 21.105 8.505 32.655 32.34 26.04 53.655-4.095 13.125-11.76 21.945-24.045 27.72-6.405 3.045-8.19 3.36-19.11 3.675l-12.075.42-4.41 10.92-4.305 10.92h16.485c18.375 0 24.465-1.155 35.07-6.405 26.88-13.545 41.16-43.785 34.86-73.92-3.99-19.32-17.955-37.17-35.175-45.465-4.935-2.31-11.445-4.725-14.49-5.355-3.255-.735-18.27-1.155-36.435-1.155H190.2v10.92zm595.35 41.58v10.5h19.95v-21h-19.95v10.5zM599.7 227.4v63h21l.21-42.525.315-42.63 24.36 42.315 24.255 42.315 11.655.315 11.655.315V164.4h-21l-.21 43.05-.315 43.05-24.675-43.05-24.675-43.05H599.7v63zm-114.345-1.365c-14.7 33.39-27.09 61.53-27.615 62.58-.84 1.68-.21 1.785 10.71 1.575l11.655-.315 4.41-9.975 4.515-9.975 25.41-.315c13.965-.105 25.41-.63 25.41-1.05s-1.995-5.355-4.41-10.92l-4.41-10.29-15.96-.21-15.96-.315 12.285-27.51c6.72-15.225 12.39-27.615 12.705-27.615.315 0 10.185 22.05 22.05 48.93 11.865 26.985 22.05 49.14 22.68 49.455.63.21 5.775.21 11.55.105l10.5-.315-27.3-61.95-27.405-61.95-12.075-.315-12.075-.21-26.67 60.585zm220.395 1.89V290.4h21V186.24l20.265.42c18.375.315 20.58.525 25.305 2.73 10.815 4.935 18.795 13.86 22.785 25.2 3.255 9.135 2.415 21.525-1.89 30.87-4.2 8.82-11.235 15.855-20.16 20.055-5.67 2.73-8.4 3.255-18.27 3.78l-11.655.63-3.99 9.87c-2.205 5.46-3.99 10.08-3.99 10.29 0 .21 6.72.315 15.015.315 22.785 0 34.545-3.99 47.775-16.38 12.6-11.655 19.005-25.41 19.845-42.945.63-13.125-1.155-21.735-7.245-33.285-5.46-10.605-14.7-20.055-24.57-25.2-13.125-6.825-15.225-7.14-49.455-7.14H705.75v62.475zm123.9 0V290.4h21V165.45h-21v62.475z" />
</svg>