<svg xmlns="http://www.w3.org/2000/svg" width="146.5" height="22.76" viewBox="0 0 146.5 22.76"><title>logo-blanco-2020</title><path d="M27.3,6a1.45,1.45,0,0,1,1.5,1.4,1.5,1.5,0,0,1-3,0A1.45,1.45,0,0,1,27.3,6ZM39,18.4l.1.1v.2a.1.1,0,0,0,.1.1v2.5c0,.1-.1.1-.1.2v.2a14.75,14.75,0,0,1-2.9,3.6l.1-.1.1-.1.1-.1v-.1l.1-.1.1-.1a.1.1,0,0,1,.1-.1l.1-.1.1-.1a.1.1,0,0,1,.1-.1v-.1l.1-.1.1-.1a.1.1,0,0,1,.1-.1v-.1a.1.1,0,0,1,.1-.1,9.17,9.17,0,0,0,.9-2.3,1.23,1.23,0,0,0-.2-1.2c-1-1.3-4.8-.3-8.5,2.2a18.37,18.37,0,0,0-3.8,3.3s-.1.1-.1,0-.1-.1,0-.1a4.58,4.58,0,0,1,.8-1.3,17.41,17.41,0,0,1,1.2-1.4,14.35,14.35,0,0,1,2.6-2.2c3.2-2.2,6.8-2.8,8.4-2C38.7,18.1,38.9,18.2,39,18.4Zm-.7-1.5a1.61,1.61,0,0,0-.4-.7c-1.5-1.8-6-.7-9.9,2.4s-5.9,7.2-4.4,9a2.87,2.87,0,0,0,1.3.8c.2,0,.3.1.5.1a.1.1,0,0,1,.1.1c0,.1,0,.1-.1.1-1.6.2-2.9-.1-3.6-1-1.8-2.1.4-6.8,5-10.5a23.08,23.08,0,0,1,2.8-1.9,13.85,13.85,0,0,1,6.3-1.9,3.55,3.55,0,0,1,2.4,1,2,2,0,0,1,.4,1.3,2.66,2.66,0,0,1-.3,1.2l-.1.1C38.4,16.9,38.3,16.9,38.3,16.9Zm-1.4-4.7v.4a.1.1,0,0,1-.1.1h-.1c0-.1-.1-.1-.1-.2l-.1-.1c-1.4-1.9-5.9-1-10,1.9a20.46,20.46,0,0,0-6.3,6.8c-1,1.8-1.2,3.5-.3,4.4l.4.4V26l-.1.1a3.23,3.23,0,0,1-1.7-1c-2-2.4.4-7.5,5.4-11.5s10.6-5.3,12.6-2.9A2.41,2.41,0,0,1,36.9,12.2ZM17.1,21.8a5.55,5.55,0,0,1-.8-.6c-1.2-1.5-.6-4.1,1.4-6.8a18.62,18.62,0,0,1,1.9-2.2,27.85,27.85,0,0,1,3.2-2.6V9.4L22.4,9s-.1-.1,0-.1a.1.1,0,0,1,.1-.1l3.1-.6h.1v.1l-1.1,3.2-.1.1a.1.1,0,0,1-.1-.1l-.3-.6-.1-.1h-.1a20.65,20.65,0,0,0-2.5,1.9c-2.9,2.6-4.5,5.6-4.4,7.7a2.66,2.66,0,0,0,.3,1.2v.1Z" transform="translate(0 -6)" fill="#e50004" fill-rule="evenodd"/><path d="M47.2,9.1,52,23.2,57,9.1a1.23,1.23,0,0,1,1.1-.7h4.3a1.11,1.11,0,0,1,1.1,1.1V26.4a1.11,1.11,0,0,1-1.1,1.1H60.6a1.11,1.11,0,0,1-1.1-1.1V13.1l-5,13.6a1.23,1.23,0,0,1-1.1.7H50.6a1.23,1.23,0,0,1-1.1-.7L44.8,13.1V26.3a1.11,1.11,0,0,1-1.1,1.1H41.9a1.11,1.11,0,0,1-1.1-1.1V9.4a1.11,1.11,0,0,1,1.1-1.1h4.3A1.21,1.21,0,0,1,47.2,9.1Z" transform="translate(0 -6)" fill="#fff"/><path d="M65.7,26.3V25a1.11,1.11,0,0,1,1.1-1.1h8a6.8,6.8,0,0,0,3-.4,2,2,0,0,0,1.1-1.8,2.1,2.1,0,0,0-1.2-2,5.92,5.92,0,0,0-2.3-.4H71.7c-2.3,0-3.9-.4-4.9-1.2a5.75,5.75,0,0,1-1.5-1.9,4.71,4.71,0,0,1-.5-2.4A6.28,6.28,0,0,1,66,10.1a5.23,5.23,0,0,1,3.9-1.9,19.4,19.4,0,0,1,2.7-.1h8.8a1.11,1.11,0,0,1,1.1,1.1v1.3a1.11,1.11,0,0,1-1.1,1.1H73.5a14.68,14.68,0,0,0-2.7.2,1.77,1.77,0,0,0-1.4,1.9,1.8,1.8,0,0,0,1.1,1.8,4.62,4.62,0,0,0,2.6.5h3.2a11.81,11.81,0,0,1,3.7.4,4.74,4.74,0,0,1,2.9,2.4,7.31,7.31,0,0,1,.6,3,6.21,6.21,0,0,1-.8,3.1,4.73,4.73,0,0,1-3.5,2.3,26.83,26.83,0,0,1-3.4.2h-9A1.11,1.11,0,0,1,65.7,26.3Z" transform="translate(0 -6)" fill="#fff"/><path d="M96.1,19.6l-2.6-6.7-2.9,6.7h5.5ZM83.3,25.9,90.7,9a1.2,1.2,0,0,1,1-.7h3.4a1,1,0,0,1,1,.7l7.4,16.9a1.18,1.18,0,0,1-.1,1,1.05,1.05,0,0,1-.9.5H99.9a1.23,1.23,0,0,1-1.1-.7L97.5,23H89.6l-1.7,3.8a1.2,1.2,0,0,1-1,.7H84.3a1.05,1.05,0,0,1-.9-.5A1.42,1.42,0,0,1,83.3,25.9Z" transform="translate(0 -6)" fill="#fff"/><path d="M99.5,10.7V9.4a1.11,1.11,0,0,1,1.1-1.1h15.1a1.11,1.11,0,0,1,1.1,1.1v1.3a1.11,1.11,0,0,1-1.1,1.1h-5.5V26.4a1.11,1.11,0,0,1-1.1,1.1h-2a1.11,1.11,0,0,1-1.1-1.1V11.8h-5.3A1.13,1.13,0,0,1,99.5,10.7Z" transform="translate(0 -6)" fill="#fff"/><path d="M131.5,9.4v1.3a1.11,1.11,0,0,1-1.1,1.1h-4.5a12.22,12.22,0,0,0-3.2.3,3.86,3.86,0,0,0-1.7,1.1,3,3,0,0,0-.6,1.1,15.25,15.25,0,0,0-.3,1.9h7.4a1.11,1.11,0,0,1,1.1,1.1v1.3a1.11,1.11,0,0,1-1.1,1.1h-7.4a4.54,4.54,0,0,0,1.5,3.4,7.91,7.91,0,0,0,4.4,1h4.3a1.11,1.11,0,0,1,1.1,1.1v1.3a1.11,1.11,0,0,1-1.1,1.1h-4.5a24.15,24.15,0,0,1-4-.3,7.15,7.15,0,0,1-4.3-2.2,10.62,10.62,0,0,1-2.3-7.1,9.66,9.66,0,0,1,3.2-7.7,8.37,8.37,0,0,1,5.7-1.7h6.1A.94.94,0,0,1,131.5,9.4Z" transform="translate(0 -6)" fill="#fff"/><path d="M133.9,8.4h2A1.11,1.11,0,0,1,137,9.5V19c.1,1.3.1,2.2.2,2.7a2.12,2.12,0,0,0,1.3,1.8,11,11,0,0,0,3.9.5h3a1.11,1.11,0,0,1,1.1,1.1v1.3a1.11,1.11,0,0,1-1.1,1.1H142a26.65,26.65,0,0,1-4.7-.3,5.53,5.53,0,0,1-4.2-4,24.77,24.77,0,0,1-.4-4V9.4A1.29,1.29,0,0,1,133.9,8.4Z" transform="translate(0 -6)" fill="#fff"/><path d="M16.5,25.1v1.3a1.11,1.11,0,0,1-1.1,1.1h-6a22.79,22.79,0,0,1-3.1-.2A7.21,7.21,0,0,1,1,23.4,12.12,12.12,0,0,1,0,18a10.57,10.57,0,0,1,1.6-6.2,6.55,6.55,0,0,1,3-2.5,13.55,13.55,0,0,1,4.9-.8h5.7a1.11,1.11,0,0,1,1.1,1.1v1.3A1.11,1.11,0,0,1,15.2,12H10.1a5.38,5.38,0,0,0-4.2,1.5c-.7.5-1.1,2-1.1,4.1,0,2.8.6,4.7,1.7,5.5a6.45,6.45,0,0,0,3.8.9h5A1.2,1.2,0,0,1,16.5,25.1Z" transform="translate(0 -6)" fill="#fff"/></svg>