<svg id="Grupo_1" data-name="Grupo 1" xmlns="http://www.w3.org/2000/svg" width="237.415" height="55"
    viewBox="0 0 237.415 55">
    <path id="Trazado_1" data-name="Trazado 1"
        d="M59.025,77.2a25.8,25.8,0,0,1-2.495-.915c-.12-.057-.244-.109-.364-.166a1.633,1.633,0,0,1-.213-.094,32.942,32.942,0,0,1-6.559-4.08c-2.4-1.887-5.182-4.054-8.114-6.378-1-.79-2-1.59-3.02-2.417-3.623-2.931-7.3-6.014-10.536-9.028-.561-.525-1.128-1.034-1.668-1.559-7.869-7.578-11.981-14.325-1.32-17.8,13.654-4.449,31.134-7.2,46.805-.213,7.9,3.54,9.553,12.079,8.166,20.344-1.513,9.06-4.091,16.492-4.735,17.527-2.63,4.273-8.472,7.006-15.946,4.777"
        transform="translate(-18.302 -23.234)" fill="#61a729"></path>
    <path id="Trazado_2" data-name="Trazado 2"
        d="M72.086,67.86a21,21,0,0,1-1.746-1.778c-.073-.094-.166-.187-.234-.281-.047-.062-.1-.1-.14-.161a26.444,26.444,0,0,1-3.7-6.17c-1.138-2.6-2.49-5.619-3.872-8.81-.473-1.086-.93-2.193-1.414-3.321-1.689-4.013-3.332-8.171-4.647-12.111-.229-.686-.437-1.367-.66-2.032-3.03-9.8-3.134-17.4,8.223-16.4,14.548,1.279,31.6,5.551,41.888,17.818,5.187,6.19,2.152,14.45-3.456,21.3-6.138,7.505-12.36,13.15-13.478,13.826A13.971,13.971,0,0,1,72.086,67.86"
        transform="translate(-35.412 -16.709)" fill="#eb6620"></path>
    <path id="Trazado_3" data-name="Trazado 3"
        d="M115.837,50.965c-1.539-1.149-4.532-1.715-9.19-1.715H90.628A3.09,3.09,0,0,0,87.572,51.4L82.01,74.5h3.571a3.263,3.263,0,0,0,3.384-2.651L90.55,65.29h12.2c4.782,0,8.1-.515,10.141-1.57a8.617,8.617,0,0,0,4.293-6.071c.774-3.176.327-5.432-1.351-6.684m-11.362,2.381,1.694.021c4.371.031,5.671,1.273,5,4.039A3.96,3.96,0,0,1,109,60.467c-.858.333-2.983.738-8.244.738H91.532L93.4,53.346Z"
        transform="translate(-48.897 -32.336)" fill="#fff"></path>
    <path id="Trazado_4" data-name="Trazado 4"
        d="M249.281,66.9c1.086-4.48.78-7.36-.925-8.8-1.642-1.377-5.328-2.027-11.622-2.027-6.128,0-10.193.645-12.4,1.97-2.266,1.367-3.883,4.163-4.933,8.555-1.081,4.5-.78,7.376.92,8.8,1.648,1.377,5.338,2.032,11.591,2.032,6.159,0,10.234-.65,12.454-1.97,2.251-1.351,3.852-4.153,4.912-8.566m-6.2-.3c-.988,4.1-2.063,5.562-2.8,6.061-.754.52-2.724,1.123-7.8,1.123-5.458,0-6.757-.728-7.074-1.045-.291-.291-.863-1.45.208-5.837.925-3.8,2.251-5.4,3.212-6.061.774-.52,2.287-1.118,7.334-1.118,3.664,0,6.2.52,7.1,1.466.39.364.8,1.315-.187,5.411"
        transform="translate(-114.574 -35.611)" fill="#fff"></path>
    <path id="Trazado_5" data-name="Trazado 5"
        d="M444.877,57.557c-1.819-.993-5.322-1.487-10.754-1.487-5.536,0-9.371.712-11.736,2.173s-4.075,4.241-5.026,8.264c-1.071,4.408-.723,7.287,1.05,8.784,1.7,1.445,5.458,2.136,11.5,2.136,9.377,0,14.689-2.266,15.765-6.762l.379-1.85h-3.893a2.512,2.512,0,0,0-2.692,1.876c-.031.062-.031.125-.052.172a4.008,4.008,0,0,1-1.632,2.115c-1.014.53-3.311.8-6.8.8-5.078,0-6.83-.619-7.407-1.159-.431-.4-1.008-1.658-.078-5.556.764-3.155,1.715-5.187,2.848-6.045,1.112-.858,3.415-1.294,6.83-1.294,3.6,0,5.957.239,6.986.7.3.14,1.076.489.837,1.944a1.594,1.594,0,0,0,.3,1.138,1.975,1.975,0,0,0,1.528.515h3.862l.114-.494c.7-2.828.016-4.891-1.923-5.967"
        transform="translate(-209.652 -35.611)" fill="#fff"></path>
    <path id="Trazado_6" data-name="Trazado 6"
        d="M318.1,40.605c-4.241,0-5.13,4.215-5.161,4.392l-1.352,5.6-.509-.333c-1.643-1.092-4.647-1.611-9.164-1.611-4.9,0-8.4.722-10.7,2.225s-3.919,4.2-4.834,8.01c-1.039,4.247-.722,7.105.941,8.737,1.6,1.575,4.855,2.36,9.985,2.375h.2a22.877,22.877,0,0,0,9.039-1.445l.748-.338-.338,1.778h5.806L320.043,40.6H318.1Zm-8.488,18c-.982,4.07-2.24,5.691-3.124,6.326-1.279.93-3.909,1.419-7.62,1.419-4.22,0-5.733-.717-6.237-1.315s-.936-2.084-.036-5.868c.686-2.791,1.658-4.652,2.9-5.525,1.263-.889,3.6-1.346,6.955-1.346,4.434,0,6.123.707,6.767,1.294.878.79,1.014,2.479.4,5.016"
        transform="translate(-146.753 -28.182)" fill="#fff"></path>
    <path id="Trazado_7" data-name="Trazado 7"
        d="M379.579,57.6c-1.793-1.024-5.364-1.528-10.915-1.528-5.115,0-8.555.411-10.536,1.232a6.627,6.627,0,0,0-3.893,4.491l.421.016c3.3,0,4.979-.026,5.587-.047.535-1.539,2.869-2.183,7.833-2.183.291,0,.593.005.91.005,3.7.057,5.66.437,6.409,1.242a1.26,1.26,0,0,1,.343.951,12.58,12.58,0,0,1-.671,3.191l-.177.452-.421-.218c-1.627-.816-4.558-1.216-9-1.216-4.922,0-8.358.452-10.489,1.388A7.366,7.366,0,0,0,350.7,70.7a4.276,4.276,0,0,0,.691,3.846c1.513,1.939,5.005,2.885,10.692,2.89h.135a28.594,28.594,0,0,0,9.4-1.242l.738-.265-.338,1.513h5.5l3.909-13.665c.691-2.937.062-5.078-1.85-6.175m-5.634,12.973c-.5,2.677-4.127,3.207-10.276,3.207-4.07,0-4.782-.229-5.3-.4a2.033,2.033,0,0,1-1.372-2.7,3.905,3.905,0,0,1,2.11-2.807c1.258-.509,2.365-.541,5.686-.541h1.331c4.605,0,5.53.255,6.274.582a2.412,2.412,0,0,1,1.549,2.661"
        transform="translate(-177.847 -35.611)" fill="#fff"></path>
    <path id="Trazado_8" data-name="Trazado 8"
        d="M187.351,59.368c-1.237-1.559-3.716-2.313-7.594-2.313a17.834,17.834,0,0,0-7.168,1.3l-.764.327.447-2.012h-6.367l-5.4,20.739h3.285c2.765,0,3.467-2.88,3.482-2.994l2.209-8.306c.863-3.644,3.716-5.416,8.706-5.416,2.588,0,3.55.525,3.9.988.094.109.353.442.156,1.242-.031.125-.125.411-.307.936l-.587,1.523h6.164l.452-2.006a4.484,4.484,0,0,0-.624-4.007"
        transform="translate(-86.595 -35.899)" fill="#fff"></path>
</svg>